<?xml version="1.0" encoding="UTF-8" standalone="no"?>
<svg
   id="visual"
   viewBox="0 0 900 600"
   width="900"
   height="600"
   version="1.1"
   sodipodi:docname="Layer2.svg"
   inkscape:version="1.2.2 (b0a8486541, 2022-12-01)"
   xmlns:inkscape="http://www.inkscape.org/namespaces/inkscape"
   xmlns:sodipodi="http://sodipodi.sourceforge.net/DTD/sodipodi-0.dtd"
   xmlns="http://www.w3.org/2000/svg"
   xmlns:svg="http://www.w3.org/2000/svg">
  <defs
     id="defs320" />
  <sodipodi:namedview
     id="namedview318"
     pagecolor="#ffffff"
     bordercolor="#000000"
     borderopacity="0.25"
     inkscape:showpageshadow="2"
     inkscape:pageopacity="0.0"
     inkscape:pagecheckerboard="0"
     inkscape:deskcolor="#d1d1d1"
     showgrid="false"
     inkscape:zoom="1.7116667"
     inkscape:cx="449.85393"
     inkscape:cy="301.16845"
     inkscape:window-width="3840"
     inkscape:window-height="1989"
     inkscape:window-x="0"
     inkscape:window-y="0"
     inkscape:window-maximized="1"
     inkscape:current-layer="visual" />
  <path
     d="m -36.256023,419.39113 23.327015,-10.44142 c 23.327014,-10.44142 69.981043,-31.32426 116.418078,-42.04412 46.54553,-10.58064 92.76556,-11.13752 139.3111,-18.51612 46.43703,-7.37861 93.09106,-21.85738 139.52809,-17.12393 46.54553,4.59422 92.76557,28.26144 139.31111,38.28521 46.43703,9.88454 93.09106,6.26485 139.52809,8.49235 46.54553,2.36673 92.76557,10.71986 139.31111,9.32767 46.43703,-1.39219 93.09106,-12.5297 116.41807,-18.09846 l 23.32701,-5.56876 v 236.67221 h -23.32701 c -23.32701,0 -69.98104,0 -116.41807,0 -46.54554,0 -92.76558,0 -139.31111,0 -46.43703,0 -93.09106,0 -139.52809,0 -46.54554,0 -92.76558,0 -139.31111,0 -46.43703,0 -93.09106,0 -139.52809,0 -46.54554,0 -92.76557,0 -139.3111,0 -46.437035,0 -93.091064,0 -116.418078,0 h -23.327015 z"
     fill="#ef5f67"
     id="path309"
     style="stroke-width:1.22902" />
</svg>
