<?xml version="1.0" encoding="UTF-8" standalone="no"?>
<svg
   id="visual"
   viewBox="0 0 900 600"
   width="900"
   height="600"
   version="1.1"
   sodipodi:docname="LayerR1.svg"
   inkscape:version="1.2.2 (b0a8486541, 2022-12-01)"
   xmlns:inkscape="http://www.inkscape.org/namespaces/inkscape"
   xmlns:sodipodi="http://sodipodi.sourceforge.net/DTD/sodipodi-0.dtd"
   xmlns="http://www.w3.org/2000/svg"
   xmlns:svg="http://www.w3.org/2000/svg">
  <defs
     id="defs277" />
  <sodipodi:namedview
     id="namedview275"
     pagecolor="#ffffff"
     bordercolor="#000000"
     borderopacity="0.25"
     inkscape:showpageshadow="2"
     inkscape:pageopacity="0.0"
     inkscape:pagecheckerboard="0"
     inkscape:deskcolor="#d1d1d1"
     showgrid="false"
     inkscape:zoom="1.7116667"
     inkscape:cx="403.70009"
     inkscape:cy="398.14994"
     inkscape:window-width="3840"
     inkscape:window-height="1989"
     inkscape:window-x="0"
     inkscape:window-y="0"
     inkscape:window-maximized="1"
     inkscape:current-layer="visual" />
  <path
     d="m -0.2421913,159.87881 21.5000003,7.83003 c 21.5,7.82999 64.5,23.49004 107.299991,28.71006 42.9,5.22001 85.5,0 128.4,2.8188 42.8,2.71441 85.8,13.57205 128.6,13.36325 42.9,-0.20882 85.5,-11.27524 128.4,-11.69283 42.8,-0.31321 85.8,10.12681 128.6,10.44 42.9,0.41763 85.5,-9.39601 128.4,-6.8904 42.8,2.4012 85.8,17.01724 107.3,24.32526 l 21.5,7.30801 V 0.14639532 h -21.5 c -21.5,0 -64.5,0 -107.3,0 -42.9,0 -85.5,0 -128.4,0 -42.8,0 -85.8,0 -128.6,0 -42.9,0 -85.5,0 -128.4,0 -42.8,0 -85.8,0 -128.6,0 -42.9,0 -85.5,0 -128.4,0 -42.799991,0 -85.799991,0 -107.299991,0 H -0.2421913 Z"
     fill="#fa7268"
     id="path264"
     style="stroke-width:1.02177" />
</svg>
