<?xml version="1.0" encoding="UTF-8" standalone="no"?>
<svg
   id="visual"
   viewBox="0 0 900 600"
   width="900"
   height="600"
   version="1.1"
   sodipodi:docname="Layer1.svg"
   inkscape:version="1.2.2 (b0a8486541, 2022-12-01)"
   xmlns:inkscape="http://www.inkscape.org/namespaces/inkscape"
   xmlns:sodipodi="http://sodipodi.sourceforge.net/DTD/sodipodi-0.dtd"
   xmlns="http://www.w3.org/2000/svg"
   xmlns:svg="http://www.w3.org/2000/svg">
  <defs
     id="defs277" />
  <sodipodi:namedview
     id="namedview275"
     pagecolor="#ffffff"
     bordercolor="#000000"
     borderopacity="0.25"
     inkscape:showpageshadow="2"
     inkscape:pageopacity="0.0"
     inkscape:pagecheckerboard="0"
     inkscape:deskcolor="#d1d1d1"
     showgrid="false"
     inkscape:zoom="1.7116667"
     inkscape:cx="449.85393"
     inkscape:cy="300.58422"
     inkscape:window-width="3840"
     inkscape:window-height="1989"
     inkscape:window-x="0"
     inkscape:window-y="0"
     inkscape:window-maximized="1"
     inkscape:current-layer="visual" />
  <path
     d="M 0.54457384,392.11078 22.044574,381.89593 c 21.5,-10.21484 64.5,-30.64454 107.299996,-37.45444 42.9,-6.80989 85.5,0 128.4,-3.67734 42.8,-3.54115 85.8,-17.70574 128.6,-17.43334 42.9,0.2724 85.5,14.70938 128.4,15.25417 42.8,0.4086 85.8,-13.2112 128.6,-13.61979 42.9,-0.5448 85.5,12.25781 128.4,8.98906 42.8,-3.13255 85.8,-22.20027 107.3,-31.73412 l 21.5,-9.53386 v 307.80739 h -21.5 c -21.5,0 -64.5,0 -107.3,0 -42.9,0 -85.5,0 -128.4,0 -42.8,0 -85.8,0 -128.6,0 -42.9,0 -85.5,0 -128.4,0 -42.8,0 -85.8,0 -128.6,0 -42.9,0 -85.5,0 -128.4,0 -42.799996,0 -85.799996,0 -107.299996,0 H 0.54457384 Z"
     fill="#fa7268"
     id="path264"
     style="stroke-width:1.16704" />
</svg>
