<?xml version="1.0" encoding="UTF-8" standalone="no"?>
<svg
   id="visual"
   viewBox="0 0 900 270"
   width="900"
   height="270"
   version="1.1"
   sodipodi:docname="Layer3.svg"
   inkscape:version="1.3 (0e150ed6c4, 2023-07-21)"
   xmlns:inkscape="http://www.inkscape.org/namespaces/inkscape"
   xmlns:sodipodi="http://sodipodi.sourceforge.net/DTD/sodipodi-0.dtd"
   xmlns="http://www.w3.org/2000/svg"
   xmlns:svg="http://www.w3.org/2000/svg">
  <defs
     id="defs355" />
  <sodipodi:namedview
     id="namedview353"
     pagecolor="#ffffff"
     bordercolor="#000000"
     borderopacity="0.25"
     inkscape:showpageshadow="2"
     inkscape:pageopacity="0.0"
     inkscape:pagecheckerboard="0"
     inkscape:deskcolor="#d1d1d1"
     showgrid="false"
     inkscape:zoom="1.7116667"
     inkscape:cx="449.85393"
     inkscape:cy="301.46056"
     inkscape:window-width="3840"
     inkscape:window-height="1965"
     inkscape:window-x="0"
     inkscape:window-y="0"
     inkscape:window-maximized="1"
     inkscape:current-layer="visual" />
  <path
     d="M -14.784937,-4.5139175 7.8175072,-5.955932 c 22.6024458,-1.3218491 67.8073348,-4.205884 112.8019728,2.042851 45.09975,6.2487329 89.88414,21.389905 134.9839,24.033601 44.99463,2.643696 90.19953,-7.450416 135.19416,-11.0554535 45.09975,-3.6050442 89.88413,-0.7210113 134.98391,10.0941045 44.99462,10.815126 90.19951,29.561332 135.19415,37.97309 45.09977,8.411765 89.88414,6.489072 134.9839,-6.729407 44.99462,-13.218476 90.19952,-37.73275 112.80198,-49.86971687 L 931.36392,-11.723999 V 184.14984 h -22.60244 c -22.60246,0 -67.80736,0 -112.80198,0 -45.09976,0 -89.88413,0 -134.9839,0 -44.99464,0 -90.19953,0 -135.19415,0 -45.09978,0 -89.88416,0 -134.98391,0 -44.99463,0 -90.19953,0 -135.19416,0 -45.09976,0 -89.88415,0 -134.9839,0 -44.994638,0 -90.199527,0 -112.8019728,0 H -14.784937 Z"
     fill="#e34c67"
     id="path346"
     style="stroke-width:1.12397" />
</svg>
