<?xml version="1.0" encoding="UTF-8" standalone="no"?>
<svg
   id="visual"
   viewBox="0 0 900 600"
   width="900"
   height="600"
   version="1.1"
   sodipodi:docname="Layer4.svg"
   inkscape:version="1.2.2 (b0a8486541, 2022-12-01)"
   xmlns:inkscape="http://www.inkscape.org/namespaces/inkscape"
   xmlns:sodipodi="http://sodipodi.sourceforge.net/DTD/sodipodi-0.dtd"
   xmlns="http://www.w3.org/2000/svg"
   xmlns:svg="http://www.w3.org/2000/svg">
  <defs
     id="defs390" />
  <sodipodi:namedview
     id="namedview388"
     pagecolor="#ffffff"
     bordercolor="#000000"
     borderopacity="0.25"
     inkscape:showpageshadow="2"
     inkscape:pageopacity="0.0"
     inkscape:pagecheckerboard="0"
     inkscape:deskcolor="#d1d1d1"
     showgrid="false"
     inkscape:zoom="1.7116667"
     inkscape:cx="449.85393"
     inkscape:cy="300.58422"
     inkscape:window-width="3840"
     inkscape:window-height="1989"
     inkscape:window-x="0"
     inkscape:window-y="0"
     inkscape:window-maximized="1"
     inkscape:current-layer="visual" />
  <path
     d="m 1.113324,432.04628 21.5,10.56473 c 21.5,10.40705 64.5,31.53652 107.299996,34.05944 42.9,2.6806 85.5,-13.08766 128.4,-14.19143 42.8,-0.9461 85.8,12.6146 128.6,19.23727 42.9,6.62267 85.5,5.99194 128.4,0.47305 42.8,-5.51889 85.8,-15.92594 128.6,-28.38287 42.9,-12.29924 85.5,-26.49067 128.4,-20.65642 42.8,5.67658 85.8,31.53652 107.3,44.30881 l 21.5,12.92998 v 110.37781 h -21.5 c -21.5,0 -64.5,0 -107.3,0 -42.9,0 -85.5,0 -128.4,0 -42.8,0 -85.8,0 -128.6,0 -42.9,0 -85.5,0 -128.4,0 -42.8,0 -85.8,0 -128.6,0 -42.9,0 -85.5,0 -128.4,0 -42.799996,0 -85.799996,0 -107.299996,0 h -21.5 z"
     fill="#d53867"
     id="path383"
     style="stroke-width:1.25572" />
</svg>
