<?xml version="1.0" encoding="UTF-8" standalone="no"?>
<svg
   id="visual"
   viewBox="0 0 900 270"
   width="900"
   height="270"
   version="1.1"
   sodipodi:docname="Layer2.svg"
   inkscape:version="1.2.2 (b0a8486541, 2022-12-01)"
   xmlns:inkscape="http://www.inkscape.org/namespaces/inkscape"
   xmlns:sodipodi="http://sodipodi.sourceforge.net/DTD/sodipodi-0.dtd"
   xmlns="http://www.w3.org/2000/svg"
   xmlns:svg="http://www.w3.org/2000/svg">
  <defs
     id="defs320" />
  <sodipodi:namedview
     id="namedview318"
     pagecolor="#ffffff"
     bordercolor="#000000"
     borderopacity="0.25"
     inkscape:showpageshadow="2"
     inkscape:pageopacity="0.0"
     inkscape:pagecheckerboard="0"
     inkscape:deskcolor="#d1d1d1"
     showgrid="false"
     inkscape:zoom="1.7116667"
     inkscape:cx="449.85393"
     inkscape:cy="301.75267"
     inkscape:window-width="3840"
     inkscape:window-height="1965"
     inkscape:window-x="0"
     inkscape:window-y="0"
     inkscape:window-maximized="1"
     inkscape:current-layer="visual" />
  <path
     d="m -33.84709,91.416258 23.327015,-10.44142 C 12.806939,70.533418 59.460968,49.650578 105.898,38.930718 c 46.54553,-10.58064 92.76556,-11.13752 139.3111,-18.51612 46.43703,-7.37861 93.09106,-21.8573801 139.52809,-17.1239301 46.54553,4.59422 92.76557,28.2614401 139.31111,38.2852101 46.43703,9.88454 93.09106,6.26485 139.52809,8.49235 46.54553,2.36673 92.76557,10.71986 139.31111,9.32767 46.43703,-1.39219 93.09106,-12.5297 116.41807,-18.09846 l 23.32701,-5.56876 V 272.40089 h -23.32701 c -23.32701,0 -69.98104,0 -116.41807,0 -46.54554,0 -92.76558,0 -139.31111,0 -46.43703,0 -93.09106,0 -139.52809,0 -46.54554,0 -92.76558,0 -139.31111,0 -46.43703,0 -93.09106,0 -139.52809,0 -46.54554,0 -92.76557,0 -139.3111,0 -46.437032,0 -93.091061,0 -116.418075,0 H -33.84709 Z"
     fill="#ef5f67"
     id="path309"
     style="stroke-width:1.22902" />
</svg>
