<?xml version="1.0" encoding="UTF-8" standalone="no"?>
<svg
   id="visual"
   viewBox="0 0 900 600"
   width="900"
   height="600"
   version="1.1"
   sodipodi:docname="LayerR4.svg"
   inkscape:version="1.2.2 (b0a8486541, 2022-12-01)"
   xmlns:inkscape="http://www.inkscape.org/namespaces/inkscape"
   xmlns:sodipodi="http://sodipodi.sourceforge.net/DTD/sodipodi-0.dtd"
   xmlns="http://www.w3.org/2000/svg"
   xmlns:svg="http://www.w3.org/2000/svg">
  <defs
     id="defs390" />
  <sodipodi:namedview
     id="namedview388"
     pagecolor="#ffffff"
     bordercolor="#000000"
     borderopacity="0.25"
     inkscape:showpageshadow="2"
     inkscape:pageopacity="0.0"
     inkscape:pagecheckerboard="0"
     inkscape:deskcolor="#d1d1d1"
     showgrid="false"
     inkscape:zoom="1.7116667"
     inkscape:cx="449.85393"
     inkscape:cy="301.16845"
     inkscape:window-width="3840"
     inkscape:window-height="1989"
     inkscape:window-x="0"
     inkscape:window-y="0"
     inkscape:window-maximized="1"
     inkscape:current-layer="visual" />
  <path
     d="M 0.85087877,142.20195 22.350879,133.10584 c 21.5,-8.96035 64.5,-27.15258 107.300001,-29.32479 42.9,-2.30797 85.5,11.26833 128.4,12.21866 42.8,0.81458 85.8,-10.86103 128.6,-16.563072 42.9,-5.70204 85.5,-5.15899 128.4,-0.40729 42.8,4.751702 85.8,13.712052 128.6,24.437332 42.9,10.5895 85.5,22.80816 128.4,17.78494 42.8,-4.88747 85.8,-27.15259 107.3,-38.14938 l 21.5,-11.132572 V -3.0643624 h -21.5 c -21.5,0 -64.5,0 -107.3,0 -42.9,0 -85.5,0 -128.4,0 -42.8,0 -85.8,0 -128.6,0 -42.9,0 -85.5,0 -128.4,0 -42.8,0 -85.8,0 -128.6,0 -42.9,0 -85.5,0 -128.4,0 -42.800001,0 -85.800001,0 -107.300001,0 H 0.85087877 Z"
     fill="#d53867"
     id="path383"
     style="stroke-width:1.16518" />
</svg>
