<?xml version="1.0" encoding="UTF-8" standalone="no"?>
<svg
   id="visual"
   viewBox="0 0 900 270"
   width="900"
   height="270"
   version="1.1"
   sodipodi:docname="Layer3.svg"
   inkscape:version="1.2.2 (b0a8486541, 2022-12-01)"
   xmlns:inkscape="http://www.inkscape.org/namespaces/inkscape"
   xmlns:sodipodi="http://sodipodi.sourceforge.net/DTD/sodipodi-0.dtd"
   xmlns="http://www.w3.org/2000/svg"
   xmlns:svg="http://www.w3.org/2000/svg">
  <defs
     id="defs355" />
  <sodipodi:namedview
     id="namedview353"
     pagecolor="#ffffff"
     bordercolor="#000000"
     borderopacity="0.25"
     inkscape:showpageshadow="2"
     inkscape:pageopacity="0.0"
     inkscape:pagecheckerboard="0"
     inkscape:deskcolor="#d1d1d1"
     showgrid="false"
     inkscape:zoom="1.7116667"
     inkscape:cx="449.85393"
     inkscape:cy="301.75267"
     inkscape:window-width="3840"
     inkscape:window-height="1965"
     inkscape:window-x="0"
     inkscape:window-y="0"
     inkscape:window-maximized="1"
     inkscape:current-layer="visual" />
  <path
     d="m -32.565173,27.368687 23.1537297,-1.85801 c 23.1537303,-1.70318 69.4611913,-5.41921 115.5532733,2.63218 46.19977,8.05139 92.07646,27.56054 138.27623,30.9669 46.09207,3.40636 92.39954,-9.59974 138.49161,-14.24477 46.19977,-4.64504 92.07646,-0.92901 138.27624,13.00609 46.09207,13.93511 92.39953,38.08929 138.49161,48.927703 46.19977,10.83842 92.07646,8.36106 138.27623,-8.670733 46.09207,-17.03179 92.39953,-48.61803 115.55327,-64.25631 l 23.15373,-15.79312 V 270.45883 h -23.15373 c -23.15374,0 -69.4612,0 -115.55327,0 -46.19977,0 -92.07646,0 -138.27623,0 -46.09208,0 -92.39954,0 -138.49161,0 -46.19978,0 -92.07647,0 -138.27624,0 -46.09207,0 -92.39954,0 -138.49161,0 -46.19977,0 -92.07646,0 -138.27623,0 -46.092082,0 -92.399543,0 -115.5532733,0 H -32.565173 Z"
     fill="#e34c67"
     id="path346"
     style="stroke-width:1.2913" />
</svg>
