<?xml version="1.0" encoding="UTF-8" standalone="no"?>
<svg
   id="visual"
   viewBox="0 0 900 600"
   width="900"
   height="600"
   version="1.1"
   sodipodi:docname="LayerR3.svg"
   inkscape:version="1.2.2 (b0a8486541, 2022-12-01)"
   xmlns:inkscape="http://www.inkscape.org/namespaces/inkscape"
   xmlns:sodipodi="http://sodipodi.sourceforge.net/DTD/sodipodi-0.dtd"
   xmlns="http://www.w3.org/2000/svg"
   xmlns:svg="http://www.w3.org/2000/svg">
  <defs
     id="defs355" />
  <sodipodi:namedview
     id="namedview353"
     pagecolor="#ffffff"
     bordercolor="#000000"
     borderopacity="0.25"
     inkscape:showpageshadow="2"
     inkscape:pageopacity="0.0"
     inkscape:pagecheckerboard="0"
     inkscape:deskcolor="#d1d1d1"
     showgrid="false"
     inkscape:zoom="1.7116667"
     inkscape:cx="449.85393"
     inkscape:cy="301.16845"
     inkscape:window-width="3840"
     inkscape:window-height="1989"
     inkscape:window-x="0"
     inkscape:window-y="0"
     inkscape:window-maximized="1"
     inkscape:current-layer="visual" />
  <path
     d="M 0.95749687,227.11514 22.457497,228.8437 c 21.5,1.58453 64.500003,5.04168 107.300003,-2.4488 42.9,-7.49048 85.5,-25.64049 128.4,-28.80955 42.8,-3.16904 85.8,8.93097 128.6,13.25239 42.9,4.32144 85.5,0.8643 128.4,-12.09999 42.8,-12.9643 85.8,-35.43575 128.6,-45.51909 42.9,-10.08333 85.5,-7.77857 128.4,8.06667 42.8,15.84526 85.8,45.23099 107.3,59.7798 l 21.5,14.69287 V 0.96024923 h -21.5 c -21.5,0 -64.5,0 -107.3,0 -42.9,0 -85.5,0 -128.4,0 -42.8,0 -85.8,0 -128.6,0 -42.9,0 -85.5,0 -128.4,0 -42.8,0 -85.8,0 -128.6,0 -42.9,0 -85.5,0 -128.4,0 -42.8,0 -85.800003,0 -107.300003,0 H 0.95749687 Z"
     fill="#e34c67"
     id="path346"
     style="stroke-width:1.2002" />
</svg>
