<?xml version="1.0" encoding="UTF-8" standalone="no"?>
<svg
   id="visual"
   viewBox="0 0 900 270"
   width="900"
   height="270"
   version="1.1"
   sodipodi:docname="Layer2.svg"
   inkscape:version="1.3 (0e150ed6c4, 2023-07-21)"
   xmlns:inkscape="http://www.inkscape.org/namespaces/inkscape"
   xmlns:sodipodi="http://sodipodi.sourceforge.net/DTD/sodipodi-0.dtd"
   xmlns="http://www.w3.org/2000/svg"
   xmlns:svg="http://www.w3.org/2000/svg">
  <defs
     id="defs320" />
  <sodipodi:namedview
     id="namedview318"
     pagecolor="#ffffff"
     bordercolor="#000000"
     borderopacity="0.25"
     inkscape:showpageshadow="2"
     inkscape:pageopacity="0.0"
     inkscape:pagecheckerboard="0"
     inkscape:deskcolor="#d1d1d1"
     showgrid="false"
     inkscape:zoom="1.7116667"
     inkscape:cx="449.85393"
     inkscape:cy="301.46056"
     inkscape:window-width="3840"
     inkscape:window-height="1965"
     inkscape:window-x="0"
     inkscape:window-y="0"
     inkscape:window-maximized="1"
     inkscape:current-layer="visual" />
  <path
     d="m -33.84709,39.164285 22.955518,-4.315176 C 12.063946,30.533933 57.974982,21.903582 103.67248,17.473333 c 45.80426,-4.372712 91.28821,-4.602856 137.09248,-7.6522455 45.6975,-3.0493936 91.60853,-9.03310471 137.30603,-7.076889 45.80426,1.8986754 91.28822,11.6797415 137.09249,15.8223125 45.6975,4.085032 91.60853,2.589105 137.30603,3.509675 45.80426,0.97811 91.28822,4.430248 137.09249,3.854891 45.6975,-0.575357 91.60853,-5.17821 114.56405,-7.479638 l 22.95551,-2.301428 v 97.810669 h -22.95551 c -22.95552,0 -68.86655,0 -114.56405,0 -45.80427,0 -91.28823,0 -137.09249,0 -45.6975,0 -91.60853,0 -137.30603,0 -45.80427,0 -91.28823,0 -137.09249,0 -45.6975,0 -91.60853,0 -137.30603,0 -45.80427,0 -91.28822,0 -137.09248,0 -45.697498,0 -91.608534,0 -114.564052,0 H -33.84709 Z"
     fill="#ef5f67"
     id="path309"
     style="stroke-width:0.783777" />
</svg>
