<?xml version="1.0" encoding="UTF-8" standalone="no"?>
<svg
   id="visual"
   viewBox="0 0 900 180"
   width="900"
   height="180"
   version="1.1"
   sodipodi:docname="Layer4.svg"
   inkscape:version="1.2.2 (b0a8486541, 2022-12-01)"
   xmlns:inkscape="http://www.inkscape.org/namespaces/inkscape"
   xmlns:sodipodi="http://sodipodi.sourceforge.net/DTD/sodipodi-0.dtd"
   xmlns="http://www.w3.org/2000/svg"
   xmlns:svg="http://www.w3.org/2000/svg">
  <defs
     id="defs390" />
  <sodipodi:namedview
     id="namedview388"
     pagecolor="#ffffff"
     bordercolor="#000000"
     borderopacity="0.25"
     inkscape:showpageshadow="2"
     inkscape:pageopacity="0.0"
     inkscape:pagecheckerboard="0"
     inkscape:deskcolor="#d1d1d1"
     showgrid="false"
     inkscape:zoom="1.7116667"
     inkscape:cx="449.85393"
     inkscape:cy="301.75267"
     inkscape:window-width="3840"
     inkscape:window-height="1965"
     inkscape:window-x="0"
     inkscape:window-y="0"
     inkscape:window-maximized="1"
     inkscape:current-layer="visual" />
  <path
     d="m -34.406354,11.91109 22.928659,10.56473 c 22.92866,10.40705 68.785979,31.53652 114.429995,34.05944 45.75068,2.6806 91.18142,-13.08766 136.9321,-14.19143 45.64403,-0.9461 91.50134,12.6146 137.14537,19.23727 45.75067,6.62267 91.18141,5.99194 136.93209,0.47305 45.64403,-5.51889 91.50134,-15.92594 137.14537,-28.38287 45.75068,-12.29924 91.18142,-26.4906696 136.9321,-20.65642 45.64402,5.67658 91.50134,31.53652 114.43,44.30881 l 22.92866,12.92998 v 110.37781 h -22.92866 c -22.92866,0 -68.78598,0 -114.43,0 -45.75068,0 -91.18142,0 -136.9321,0 -45.64403,0 -91.50134,0 -137.14537,0 -45.75068,0 -91.18142,0 -136.93209,0 -45.64403,0 -91.50134,0 -137.14537,0 -45.75068,0 -91.18142,0 -136.9321,0 -45.644016,0 -91.501335,0 -114.429995,0 h -22.928659 z"
     fill="#d53867"
     id="path383"
     style="stroke-width:1.29677" />
</svg>
