<?xml version="1.0" encoding="UTF-8" standalone="no"?>
<svg
   id="visual"
   viewBox="0 0 900 600"
   width="900"
   height="600"
   version="1.1"
   sodipodi:docname="Layer1.svg"
   inkscape:version="1.3 (0e150ed6c4, 2023-07-21)"
   xmlns:inkscape="http://www.inkscape.org/namespaces/inkscape"
   xmlns:sodipodi="http://sodipodi.sourceforge.net/DTD/sodipodi-0.dtd"
   xmlns="http://www.w3.org/2000/svg"
   xmlns:svg="http://www.w3.org/2000/svg">
  <defs
     id="defs277" />
  <sodipodi:namedview
     id="namedview275"
     pagecolor="#ffffff"
     bordercolor="#000000"
     borderopacity="0.25"
     inkscape:showpageshadow="2"
     inkscape:pageopacity="0.0"
     inkscape:pagecheckerboard="0"
     inkscape:deskcolor="#d1d1d1"
     showgrid="false"
     inkscape:zoom="1.7116667"
     inkscape:cx="449.85393"
     inkscape:cy="301.46056"
     inkscape:window-width="1920"
     inkscape:window-height="1965"
     inkscape:window-x="1920"
     inkscape:window-y="0"
     inkscape:window-maximized="0"
     inkscape:current-layer="visual" />
  <path
     d="m -33.23481,284.32046 35.8065479,-6.94695 c 38.3012861,-7.43095 62.9114031,7.99392 108.7045321,5.10954 45.90013,-2.88439 81.93472,9.19395 127.83485,7.63638 45.79314,-1.49989 91.80026,-7.49942 137.5934,-7.38404 45.90012,0.11536 91.47928,6.23028 137.3794,6.46103 45.79315,0.17306 91.80026,-5.59572 137.5934,-5.76878 45.90014,-0.23075 91.47928,5.1919 137.37941,3.80739 45.79315,-1.32681 91.80026,-9.40311 114.80382,-13.44126 l 23.00356,-4.03815 V 400.13013 H 903.86055 789.05673 651.67732 514.08392 376.70452 239.11112 101.73171 -13.072102 -36.075663 Z"
     fill="#fa7268"
     id="path264"
     style="stroke-width:0.785634"
     sodipodi:nodetypes="csccccccscccccccccccc" />
</svg>
