<svg id="visual" viewBox="0 0 900 600" width="900" height="600" xmlns="http://www.w3.org/2000/svg" xmlns:xlink="http://www.w3.org/1999/xlink" version="1.1"><path d="M0 435L21.5 431.5C43 428 86 421 128.8 408.5C171.7 396 214.3 378 257.2 375.2C300 372.3 343 384.7 385.8 390.3C428.7 396 471.3 395 514.2 393.3C557 391.7 600 389.3 642.8 391.8C685.7 394.3 728.3 401.7 771.2 399.8C814 398 857 387 878.5 381.5L900 376L900 601L878.5 601C857 601 814 601 771.2 601C728.3 601 685.7 601 642.8 601C600 601 557 601 514.2 601C471.3 601 428.7 601 385.8 601C343 601 300 601 257.2 601C214.3 601 171.7 601 128.8 601C86 601 43 601 21.5 601L0 601Z" fill="#fa7268"></path><path d="M0 457L21.5 451C43 445 86 433 128.8 422.5C171.7 412 214.3 403 257.2 405.8C300 408.7 343 423.3 385.8 435C428.7 446.7 471.3 455.3 514.2 461C557 466.7 600 469.3 642.8 470.3C685.7 471.3 728.3 470.7 771.2 471.2C814 471.7 857 473.3 878.5 474.2L900 475L900 601L878.5 601C857 601 814 601 771.2 601C728.3 601 685.7 601 642.8 601C600 601 557 601 514.2 601C471.3 601 428.7 601 385.8 601C343 601 300 601 257.2 601C214.3 601 171.7 601 128.8 601C86 601 43 601 21.5 601L0 601Z" fill="#ef5f67"></path><path d="M0 472L21.5 469C43 466 86 460 128.8 458.7C171.7 457.3 214.3 460.7 257.2 463.8C300 467 343 470 385.8 476C428.7 482 471.3 491 514.2 485.2C557 479.3 600 458.7 642.8 460C685.7 461.3 728.3 484.7 771.2 489.5C814 494.3 857 480.7 878.5 473.8L900 467L900 601L878.5 601C857 601 814 601 771.2 601C728.3 601 685.7 601 642.8 601C600 601 557 601 514.2 601C471.3 601 428.7 601 385.8 601C343 601 300 601 257.2 601C214.3 601 171.7 601 128.8 601C86 601 43 601 21.5 601L0 601Z" fill="#e34c67"></path><path d="M0 513L21.5 516.3C43 519.7 86 526.3 128.8 530.5C171.7 534.7 214.3 536.3 257.2 536.2C300 536 343 534 385.8 525C428.7 516 471.3 500 514.2 495.3C557 490.7 600 497.3 642.8 506.5C685.7 515.7 728.3 527.3 771.2 524.7C814 522 857 505 878.5 496.5L900 488L900 601L878.5 601C857 601 814 601 771.2 601C728.3 601 685.7 601 642.8 601C600 601 557 601 514.2 601C471.3 601 428.7 601 385.8 601C343 601 300 601 257.2 601C214.3 601 171.7 601 128.8 601C86 601 43 601 21.5 601L0 601Z" fill="#d53867"></path><path d="M0 556L21.5 551.7C43 547.3 86 538.7 128.8 535.5C171.7 532.3 214.3 534.7 257.2 541.2C300 547.7 343 558.3 385.8 557.3C428.7 556.3 471.3 543.7 514.2 540.7C557 537.7 600 544.3 642.8 544.3C685.7 544.3 728.3 537.7 771.2 534.8C814 532 857 533 878.5 533.5L900 534L900 601L878.5 601C857 601 814 601 771.2 601C728.3 601 685.7 601 642.8 601C600 601 557 601 514.2 601C471.3 601 428.7 601 385.8 601C343 601 300 601 257.2 601C214.3 601 171.7 601 128.8 601C86 601 43 601 21.5 601L0 601Z" fill="#c62368"></path></svg>